<?xml version="1.0" encoding="utf-8"?>
<!-- Generator: Adobe Illustrator 25.0.0, SVG Export Plug-In . SVG Version: 6.00 Build 0)  -->
<svg version="1.1" id="Layer_1" xmlns="http://www.w3.org/2000/svg" xmlns:xlink="http://www.w3.org/1999/xlink" x="0px" y="0px"
	 viewBox="0 0 1125 129" style="enable-background:new 0 0 1125 129;" xml:space="preserve">
<style type="text/css">
	.st0{fill:#231F20;}
	.st1{fill:#FFFFFF;}
</style>
<g>
	<path class="st0" d="M151.74,19.24l-0.14-0.7c-1.97,0.42-5.89,0.56-8,0.56c-2.25,0-6.18-0.14-8.14-0.56l-0.15,0.7
		c1.83,0.84,4.21,1.97,4.35,5.89c0.28,8.84,0.28,17.54,0.28,37.46H96.7c0-19.93,0-28.62,0.28-37.46c0.14-3.93,2.52-5.05,4.35-5.89
		l-0.14-0.7c-1.97,0.42-5.89,0.56-8,0.56c-2.24,0-6.17-0.14-8.14-0.56l-0.14,0.7c1.83,0.84,4.21,1.97,4.35,5.89
		c0.28,9.12,0.28,18.24,0.28,40.13c0,21.75,0,30.87-0.28,39.99c-0.14,4.07-2.52,5.19-4.35,6.03l0.14,0.56
		c1.97-0.42,5.89-0.56,8.14-0.56c2.11,0,6.03,0.14,8,0.56l0.14-0.56c-1.83-0.84-4.21-1.96-4.35-6.03
		c-0.28-9.12-0.28-18.24-0.28-39.99h43.25c0,21.75,0,30.87-0.28,39.99c-0.14,4.07-2.52,5.19-4.35,6.03l0.15,0.56
		c1.96-0.42,5.89-0.56,8.14-0.56c2.1,0,6.03,0.14,8,0.56l0.14-0.56c-1.83-0.84-4.21-1.96-4.35-6.03
		c-0.28-9.12-0.28-18.24-0.28-39.99c0-21.89,0-31,0.28-40.13C147.53,21.21,149.91,20.08,151.74,19.24z"/>
	<path class="st0" d="M183.33,109.18c-4.63,0,1.03,0-3.46-0.14c-0.28-9.12-0.28-22.03-0.28-43.78v-0.28
		c18.38,0,20.19,0.56,22.01,4.63l0.56-0.14c-0.28-1.96-0.42-3.36-0.42-5.61c0-2.24,0.14-3.51,0.42-5.47l-0.56-0.14
		c-1.68,3.65-3.66,4.63-22.01,4.63c0-20.48,0-32.69,0.28-41.39c4.77-0.28-0.61-0.42,4.02-0.42c12.21,0,22.39,1.4,29.26,7.16
		l0.7-0.56c-0.56-1.54-2.1-7.16-2.25-8.56h-35.53c-2.24,0-6.17-0.14-8.14-0.56l-0.14,0.7c1.83,0.84,4.21,1.97,4.35,5.89
		c0.28,9.12,0.28,18.24,0.28,40.13c0,21.75,0,30.87-0.28,39.99c-0.14,4.07-2.52,5.19-4.35,6.03l0.14,0.56
		c1.97-0.42,5.89-0.56,8.14-0.56h40.3c0.14-1.4,3.51-7.43,4.21-9.12l-0.7-0.42C211.61,108.06,198.2,109.18,183.33,109.18z"/>
	<path class="st0" d="M288.1,105.25c-0.28-9.12-0.28-12.49-0.28-34.37c1.54,0,2.95,0.14,4.35,0.14c23.99,0,37.79-8.98,37.79-27.5
		c0-13.05-10.15-24.7-37.79-24.7c-2.24,0-14.03,0.14-16.13,0.42l0.14,0.56c1.97,0.14,4.07,1.4,4.21,5.48
		c0.28,8.98,0.28,18.1,0.28,39.99c0,21.89,0,30.87-0.28,39.99c-0.14,4.07-2.52,5.2-4.35,6.03l0.14,0.56
		c1.97-0.42,5.89-0.56,8.14-0.56c2.11,0,6.03,0.14,8,0.56l0.14-0.56C290.62,110.44,288.24,109.32,288.1,105.25z M288.1,21.07
		c22.87,0,34.14,4.21,34.14,22.45c0,14.87-6.93,24.83-27.97,24.83c-2.25,0-4.35-0.14-6.46-0.28
		C287.82,49.69,287.82,29.34,288.1,21.07z"/>
	<path class="st0" d="M413.67,103.01c-4.63-9.12-7.58-15.43-17.82-36.76c-10.24-21.33-18.52-38.87-22.3-47.85h-1.97
		c-3.79,8.98-12.21,26.52-22.45,47.85c-10.1,21.32-13.75,28.76-18.38,37.88c-2.1,3.93-4.77,6.32-7.57,7.16l0.14,0.56
		c2.67-0.42,4.77-0.56,7.58-0.56c2.81,0,4.35,0.14,6.59,0.56l0.14-0.56c-1.97-0.84-5.47-1.96-3.79-6.03
		c2.81-6.6,5.75-12.91,11.23-24.28h49.95c5.47,11.37,8.42,17.68,11.23,24.28c1.68,4.07-1.83,5.19-3.65,6.03l0.14,0.56
		c2.24-0.42,7.02-0.56,9.82-0.56c2.81,0,6.59,0.14,9.26,0.56l0.14-0.56C419.29,110.44,415.78,107.07,413.67,103.01z M346.32,78.31
		c1.68-3.51,3.65-7.44,5.75-12.06c8.56-17.68,13.47-28.91,17.96-38.31c4.21,9.4,7.86,17.4,17.82,38.31l5.89,12.06H346.32z"/>
	<path class="st0" d="M491.91,109.74c-5.61,0-10.52-9.26-15.99-19.22c-5.89-10.53-12.35-21.89-21.05-23.85
		c15.29-2.1,27.78-9.54,27.78-24.69c0-12.63-9.31-23.15-34.85-23.15c-2.24,0-14.03,0.14-16.13,0.42l0.14,0.56
		c1.96,0.14,4.07,1.41,4.21,5.48c0.28,8.98,0.28,18.1,0.28,39.99c0,21.89,0,30.87-0.28,39.99c-0.14,4.06-2.52,5.19-4.35,6.03
		l0.14,0.56c1.96-0.42,5.89-0.56,8.14-0.56c2.11,0,6.03,0.14,8,0.56l0.14-0.56c-1.82-0.84-4.21-1.97-4.35-6.03
		c-0.28-9.12-0.28-16.14-0.28-37.89c2.81,0.15,3.98,0,6.78-0.14c1.26,0,2.38,0.28,3.51,0.7c7.16,2.67,11.23,12.35,15.16,22.03
		c4.49,11.36,8.84,22.59,17.4,22.59c3.23,0,4.91-0.42,7.44-2.24l-0.28-0.84C492.89,109.6,492.33,109.74,491.91,109.74z M449.34,64.7
		c-2.1,0-4.07-0.14-5.89-0.28c0-18.38,0-35.08,0.28-43.36c21.47,0,31.2,5.05,31.2,20.91C474.93,55.44,468.85,64.7,449.34,64.7z"/>
	<path class="st0" d="M14.21,19.24c0,1.27-1.54,6.88-2.24,8.42l0.7,0.56c8.14-5.47,10.19-6.87,22.25-6.87
		c1.97,0,0.66,0.14,2.76,0.14v43.78v20.91c0,8.14,0,13.61-0.28,19.08c-0.14,4.07-2.38,5.19-4.35,6.03l0.14,0.56
		c1.97-0.42,5.89-0.56,8.14-0.56c2.25,0,6.03,0.14,8,0.56l0.14-0.56c-1.83-0.84-4.07-1.97-4.21-6.03
		c-0.28-5.47-0.28-10.94-0.28-19.08V65.26V21.49c2.1,0,0.79-0.14,2.62-0.14c12.06,0,14.11,1.4,22.39,6.87l0.7-0.56
		c-0.7-1.54-2.25-7.16-2.38-8.42H14.21z"/>
	<path class="st0" d="M499.66,19.24c0,1.27-1.54,6.88-2.24,8.42l0.7,0.56c8.14-5.47,10.19-6.87,22.25-6.87
		c1.97,0,0.66,0.14,2.76,0.14v43.78v20.91c0,8.14,0,13.61-0.28,19.08c-0.14,4.07-2.38,5.19-4.35,6.03l0.14,0.56
		c1.97-0.42,5.89-0.56,8.14-0.56c2.25,0,6.03,0.14,8,0.56l0.14-0.56c-1.83-0.84-4.07-1.97-4.21-6.03
		c-0.28-5.47-0.28-10.94-0.28-19.08V65.26V21.49c2.1,0,0.79-0.14,2.62-0.14c12.06,0,14.11,1.4,22.39,6.87l0.7-0.56
		c-0.7-1.54-2.25-7.16-2.38-8.42H499.66z"/>
	<path class="st0" d="M587.54,19.24l-0.14-0.7c-1.97,0.42-5.89,0.56-8,0.56c-2.24,0-6.17-0.14-8.14-0.56l-0.14,0.7
		c1.83,0.84,4.21,1.97,4.35,5.89c0.28,9.12,0.28,18.24,0.28,40.13c0,21.75,0,30.87-0.28,39.99c-0.14,4.07-2.52,5.19-4.35,6.03
		l0.14,0.56c1.97-0.42,5.89-0.56,8.14-0.56c2.11,0,6.03,0.14,8,0.56l0.14-0.56c-1.83-0.84-4.21-1.96-4.35-6.03
		c-0.28-9.12-0.28-18.24-0.28-39.99c0-21.89,0-31,0.28-40.13C583.33,21.21,585.71,20.08,587.54,19.24z"/>
	<path class="st0" d="M657.1,111.29c-23.01,0-41.53-17.4-41.53-46.02c0-28.63,18.52-46.16,41.53-46.16
		c15.43,0,30.03,5.05,36.62,19.22l0.84-0.28l-0.56-8c-8.56-9.12-23.01-13.75-36.9-13.75c-27.08,0-50.09,19.22-50.09,48.97
		c0,29.61,23.01,48.83,50.09,48.83c16,0,28.63-5.89,37.46-15.43l0.56-5.61l-0.84-0.42C684.6,105.53,674.64,111.29,657.1,111.29z"/>
	<path class="st0" d="M785.17,19.24c-2.24,0-3.79-0.28-5.75-0.7l-0.14,0.7c1.83,0.84,4.21,1.97,4.35,6.03
		c0.28,8.98,0.28,27.92,0.28,49.81c0,21.89-11.92,34.94-30.16,34.94c-20.07,0-32.84-11.23-32.84-33.39c0-21.89,0-42.37,0.28-51.35
		c0.14-4.07,2.52-5.2,4.35-6.03l-0.14-0.7c-1.97,0.42-5.89,0.7-8,0.7c-2.25,0-6.18-0.28-8.14-0.7l-0.15,0.7
		c1.83,0.84,4.21,1.97,4.36,6.03c0.28,8.98,0.28,29.47,0.28,51.35c0,27.22,16.56,37.6,38.03,37.6c22.45,0,34.66-15.15,34.66-39.15
		c0-21.89,0-40.83,0.28-49.81c0.14-4.07,2.52-5.2,4.35-6.03l-0.14-0.7C788.96,18.96,787.28,19.24,785.17,19.24z"/>
	<path class="st0" d="M823.43,109.18c-4.07,0-1.87,0-6.36-0.14c-0.29-9.12-0.29-22.03-0.29-43.78c0-21.89,0-31,0.29-40.13
		c0.14-3.93,2.52-5.05,4.35-5.89l-0.14-0.7c-1.97,0.42-5.89,0.56-8,0.56c-2.25,0-6.18-0.14-8.14-0.56l-0.14,0.7
		c1.82,0.84,4.21,1.97,4.35,5.89c0.28,9.12,0.28,18.24,0.28,40.13c0,21.75,0,30.87-0.28,39.99c-0.14,4.07-2.53,5.19-4.35,6.03
		l0.14,0.56c1.96-0.42,5.89-0.56,8.14-0.56h39.9c0-1.4,3.51-7.43,4.07-9.12l-0.7-0.42C848.41,108.06,836.91,109.18,823.43,109.18z"
		/>
	<path class="st0" d="M958.75,103.01c-4.63-9.12-7.58-15.43-17.82-36.76c-10.24-21.33-18.52-38.87-22.31-47.85h-1.96
		c-3.79,8.98-12.21,26.52-22.45,47.85c-10.1,21.32-13.75,28.76-18.38,37.88c-2.11,3.93-4.77,6.32-7.58,7.16l0.15,0.56
		c2.66-0.42,4.77-0.56,7.57-0.56c2.81,0,4.35,0.14,6.59,0.56l0.14-0.56c-1.97-0.84-5.47-1.96-3.79-6.03
		c2.81-6.6,5.75-12.91,11.23-24.28h49.95c5.47,11.37,8.42,17.68,11.23,24.28c1.68,4.07-1.83,5.19-3.65,6.03l0.14,0.56
		c2.24-0.42,7.02-0.56,9.82-0.56c2.8,0,6.59,0.14,9.26,0.56l0.14-0.56C964.36,110.44,960.85,107.07,958.75,103.01z M891.4,78.31
		c1.68-3.51,3.65-7.44,5.75-12.06c8.56-17.68,13.47-28.91,17.96-38.31c4.21,9.4,7.86,17.4,17.82,38.31l5.89,12.06H891.4z"/>
	<path class="st0" d="M1044.53,109.74c-5.61,0-10.52-9.26-15.99-19.22c-5.89-10.53-12.35-21.89-21.05-23.85
		c15.29-2.1,27.78-9.54,27.78-24.69c0-12.63-14.22-23.15-39.76-23.15c-2.24,0-14.03,0.14-16.14,0.42l0.14,0.56
		c1.97,0.14,4.07,1.41,4.21,5.48c0.28,8.98,0.28,18.1,0.28,39.99c0,21.89,0,30.87-0.28,39.99c-0.14,4.06-2.52,5.19-4.35,6.03
		l0.14,0.56c1.97-0.42,5.89-0.56,8.14-0.56c2.11,0,6.04,0.14,8,0.56l0.14-0.56c-1.83-0.84-4.21-1.97-4.35-6.03
		c-0.28-9.12-0.28-16.14-0.28-37.89c2.81,0.15,8.89,0,11.69-0.14c1.26,0,2.38,0.28,3.51,0.7c7.16,2.67,11.23,12.35,15.15,22.03
		c4.5,11.36,8.84,22.59,17.4,22.59c3.23,0,4.91-0.42,7.44-2.24l-0.28-0.84C1045.51,109.6,1044.95,109.74,1044.53,109.74z
		 M1000.33,64.7c-2.11,0-7.34-0.14-9.17-0.28c0-18.38,0-35.08,0.28-43.36c21.46,0,36.1,5.05,36.1,20.91
		C1027.55,55.44,1019.83,64.7,1000.33,64.7z"/>
	<path class="st0" d="M1086.23,58.25c-11.65-4.63-22.73-8.7-22.73-21.05c0-12.06,10.24-17.96,20.48-17.96
		c9.83,0,16.98,3.22,22.73,13.33l0.7-0.56l-1.27-8.14c-4.91-4.77-10.94-7.57-21.46-7.57c-15.01,0-26.94,9.4-26.94,24.97
		c0,13.61,12.07,18.52,24.13,23.57c12.35,5.05,24.83,10.24,24.83,24.84c0,11.36-9.26,21.61-23.29,21.61
		c-10.24,0-20.77-6.87-26.38-17.26l-1.12,0.42l2.1,10.1c5.47,5.05,15.01,9.68,25.12,9.68c15.72,0,29.89-11.08,29.89-27.22
		C1113.03,68.91,1099.28,63.3,1086.23,58.25z"/>
</g>
</svg>
